<svg id="visual" viewBox="0 0 960 300" width="960" height="300" xmlns="http://www.w3.org/2000/svg" xmlns:xlink="http://www.w3.org/1999/xlink" version="1.1"><rect x="0" y="0" width="960" height="300" fill="#f1d78f"></rect><path d="M0 165L13.3 165.8C26.7 166.7 53.3 168.3 80 171.7C106.7 175 133.3 180 160 182.3C186.7 184.7 213.3 184.3 240 181.3C266.7 178.3 293.3 172.7 320 168.5C346.7 164.3 373.3 161.7 400 163.3C426.7 165 453.3 171 480 171.3C506.7 171.7 533.3 166.3 560 168.8C586.7 171.3 613.3 181.7 640 185.2C666.7 188.7 693.3 185.3 720 183.5C746.7 181.7 773.3 181.3 800 183.7C826.7 186 853.3 191 880 193C906.7 195 933.3 194 946.7 193.5L960 193L960 301L946.7 301C933.3 301 906.7 301 880 301C853.3 301 826.7 301 800 301C773.3 301 746.7 301 720 301C693.3 301 666.7 301 640 301C613.3 301 586.7 301 560 301C533.3 301 506.7 301 480 301C453.3 301 426.7 301 400 301C373.3 301 346.7 301 320 301C293.3 301 266.7 301 240 301C213.3 301 186.7 301 160 301C133.3 301 106.7 301 80 301C53.3 301 26.7 301 13.3 301L0 301Z" fill="#252525"></path><path d="M0 203L13.3 199.5C26.7 196 53.3 189 80 187.7C106.7 186.3 133.3 190.7 160 193.3C186.7 196 213.3 197 240 198.5C266.7 200 293.3 202 320 202.3C346.7 202.7 373.3 201.3 400 197.8C426.7 194.3 453.3 188.7 480 189C506.7 189.3 533.3 195.7 560 194.7C586.7 193.7 613.3 185.3 640 186.7C666.7 188 693.3 199 720 203.7C746.7 208.3 773.3 206.7 800 202C826.7 197.3 853.3 189.7 880 187.5C906.7 185.3 933.3 188.7 946.7 190.3L960 192L960 301L946.7 301C933.3 301 906.7 301 880 301C853.3 301 826.7 301 800 301C773.3 301 746.7 301 720 301C693.3 301 666.7 301 640 301C613.3 301 586.7 301 560 301C533.3 301 506.7 301 480 301C453.3 301 426.7 301 400 301C373.3 301 346.7 301 320 301C293.3 301 266.7 301 240 301C213.3 301 186.7 301 160 301C133.3 301 106.7 301 80 301C53.3 301 26.7 301 13.3 301L0 301Z" fill="#212121"></path><path d="M0 197L13.3 196.3C26.7 195.7 53.3 194.3 80 193.2C106.7 192 133.3 191 160 195.3C186.7 199.7 213.3 209.3 240 214.3C266.7 219.3 293.3 219.7 320 217.7C346.7 215.7 373.3 211.3 400 210.8C426.7 210.3 453.3 213.7 480 214.8C506.7 216 533.3 215 560 213.8C586.7 212.7 613.3 211.3 640 211.5C666.7 211.7 693.3 213.3 720 212C746.7 210.7 773.3 206.3 800 207.7C826.7 209 853.3 216 880 216C906.7 216 933.3 209 946.7 205.5L960 202L960 301L946.7 301C933.3 301 906.7 301 880 301C853.3 301 826.7 301 800 301C773.3 301 746.7 301 720 301C693.3 301 666.7 301 640 301C613.3 301 586.7 301 560 301C533.3 301 506.7 301 480 301C453.3 301 426.7 301 400 301C373.3 301 346.7 301 320 301C293.3 301 266.7 301 240 301C213.3 301 186.7 301 160 301C133.3 301 106.7 301 80 301C53.3 301 26.7 301 13.3 301L0 301Z" fill="#1d1d1d"></path><path d="M0 205L13.3 206C26.7 207 53.3 209 80 210.2C106.7 211.3 133.3 211.7 160 215.8C186.7 220 213.3 228 240 227.7C266.7 227.3 293.3 218.7 320 216.8C346.7 215 373.3 220 400 219.5C426.7 219 453.3 213 480 214.7C506.7 216.3 533.3 225.7 560 230.2C586.7 234.7 613.3 234.3 640 229.3C666.7 224.3 693.3 214.7 720 214.5C746.7 214.3 773.3 223.7 800 228.3C826.7 233 853.3 233 880 234C906.7 235 933.3 237 946.7 238L960 239L960 301L946.7 301C933.3 301 906.7 301 880 301C853.3 301 826.7 301 800 301C773.3 301 746.7 301 720 301C693.3 301 666.7 301 640 301C613.3 301 586.7 301 560 301C533.3 301 506.7 301 480 301C453.3 301 426.7 301 400 301C373.3 301 346.7 301 320 301C293.3 301 266.7 301 240 301C213.3 301 186.7 301 160 301C133.3 301 106.7 301 80 301C53.3 301 26.7 301 13.3 301L0 301Z" fill="#1a1a1a"></path><path d="M0 223L13.3 224.3C26.7 225.7 53.3 228.3 80 231.2C106.7 234 133.3 237 160 238.2C186.7 239.3 213.3 238.7 240 238.3C266.7 238 293.3 238 320 239.2C346.7 240.3 373.3 242.7 400 244.2C426.7 245.7 453.3 246.3 480 247.5C506.7 248.7 533.3 250.3 560 246.8C586.7 243.3 613.3 234.7 640 232.2C666.7 229.7 693.3 233.3 720 237.2C746.7 241 773.3 245 800 242.3C826.7 239.7 853.3 230.3 880 227.7C906.7 225 933.3 229 946.7 231L960 233L960 301L946.7 301C933.3 301 906.7 301 880 301C853.3 301 826.7 301 800 301C773.3 301 746.7 301 720 301C693.3 301 666.7 301 640 301C613.3 301 586.7 301 560 301C533.3 301 506.7 301 480 301C453.3 301 426.7 301 400 301C373.3 301 346.7 301 320 301C293.3 301 266.7 301 240 301C213.3 301 186.7 301 160 301C133.3 301 106.7 301 80 301C53.3 301 26.7 301 13.3 301L0 301Z" fill="#161616"></path><path d="M0 238L13.3 241.5C26.7 245 53.3 252 80 255.8C106.7 259.7 133.3 260.3 160 260.3C186.7 260.3 213.3 259.7 240 257.2C266.7 254.7 293.3 250.3 320 248.8C346.7 247.3 373.3 248.7 400 252C426.7 255.3 453.3 260.7 480 258.7C506.7 256.7 533.3 247.3 560 245.7C586.7 244 613.3 250 640 250.3C666.7 250.7 693.3 245.3 720 242.5C746.7 239.7 773.3 239.3 800 239.7C826.7 240 853.3 241 880 243C906.7 245 933.3 248 946.7 249.5L960 251L960 301L946.7 301C933.3 301 906.7 301 880 301C853.3 301 826.7 301 800 301C773.3 301 746.7 301 720 301C693.3 301 666.7 301 640 301C613.3 301 586.7 301 560 301C533.3 301 506.7 301 480 301C453.3 301 426.7 301 400 301C373.3 301 346.7 301 320 301C293.3 301 266.7 301 240 301C213.3 301 186.7 301 160 301C133.3 301 106.7 301 80 301C53.3 301 26.7 301 13.3 301L0 301Z" fill="#121212"></path><path d="M0 277L13.3 276.7C26.7 276.3 53.3 275.7 80 274.3C106.7 273 133.3 271 160 270.5C186.7 270 213.3 271 240 270.3C266.7 269.7 293.3 267.3 320 264.7C346.7 262 373.3 259 400 259.7C426.7 260.3 453.3 264.7 480 264.2C506.7 263.7 533.3 258.3 560 258C586.7 257.7 613.3 262.3 640 266.8C666.7 271.3 693.3 275.7 720 275.3C746.7 275 773.3 270 800 268.7C826.7 267.3 853.3 269.7 880 271C906.7 272.3 933.3 272.7 946.7 272.8L960 273L960 301L946.7 301C933.3 301 906.7 301 880 301C853.3 301 826.7 301 800 301C773.3 301 746.7 301 720 301C693.3 301 666.7 301 640 301C613.3 301 586.7 301 560 301C533.3 301 506.7 301 480 301C453.3 301 426.7 301 400 301C373.3 301 346.7 301 320 301C293.3 301 266.7 301 240 301C213.3 301 186.7 301 160 301C133.3 301 106.7 301 80 301C53.3 301 26.7 301 13.3 301L0 301Z" fill="#0d0d0d"></path><path d="M0 295L13.3 292.5C26.7 290 53.3 285 80 281.7C106.7 278.3 133.3 276.7 160 277.7C186.7 278.7 213.3 282.3 240 284.3C266.7 286.3 293.3 286.7 320 283.8C346.7 281 373.3 275 400 274.2C426.7 273.3 453.3 277.7 480 279.7C506.7 281.7 533.3 281.3 560 283C586.7 284.7 613.3 288.3 640 290.3C666.7 292.3 693.3 292.7 720 292.5C746.7 292.3 773.3 291.7 800 288C826.7 284.3 853.3 277.7 880 277.8C906.7 278 933.3 285 946.7 288.5L960 292L960 301L946.7 301C933.3 301 906.7 301 880 301C853.3 301 826.7 301 800 301C773.3 301 746.7 301 720 301C693.3 301 666.7 301 640 301C613.3 301 586.7 301 560 301C533.3 301 506.7 301 480 301C453.3 301 426.7 301 400 301C373.3 301 346.7 301 320 301C293.3 301 266.7 301 240 301C213.3 301 186.7 301 160 301C133.3 301 106.7 301 80 301C53.3 301 26.7 301 13.3 301L0 301Z" fill="#060606"></path></svg>